<svg xmlns="http://www.w3.org/2000/svg" viewBox="0 0 245 240">
  <path fill="#ffffff" d="M104.4 104.4c-5.7 0-10.2 5-10.2 11.1 0 6.1 4.6 11.1 10.2 11.1 5.7 0 10.3-5 10.2-11.1 0-6.1-4.6-11.1-10.2-11.1zm36.2 0c-5.7 0-10.2 5-10.2 11.1 0 6.1 4.6 11.1 10.2 11.1 5.7 0 10.3-5 10.2-11.1 0-6.1-4.6-11.1-10.2-11.1z"/>
  <path fill="#ffffff" d="M189.5 20h-134C24.9 20 10 34.9 10 53.5v133C10 205.1 24.9 220 43.5 220h113.2l-5.3-18.5 12.8 11.9 12.1 11.2 21.5 19.4V53.5c0-18.6-14.9-33.5-33.5-33.5zm-38.6 135s-3.6-4.3-6.6-8.1c13.1-3.7 18.1-11.9 18.1-11.9-4.1 2.7-8 4.6-11.5 5.9-5 2.1-9.8 3.5-14.5 4.3-9.6 1.8-18.4 1.3-25.8-0.1-5.6-1.1-10.4-2.6-14.3-4.3-2.2-0.8-4.6-1.9-7-3.2-0.3-0.2-0.6-0.3-0.9-0.5-0.2-0.1-0.3-0.2-0.5-0.3-2.2-1.2-3.4-2-3.4-2s4.8 8 17.5 11.8c-3 3.8-6.7 8.3-6.7 8.3-22.1-0.7-30.5-15.2-30.5-15.2 0-32.2 14.4-58.3 14.4-58.3 14.4-10.8 28.1-10.5 28.1-10.5l1 1.2c-18 5.2-26.3 13.1-26.3 13.1s2.2-1.2 5.8-2.9c10.4-4.6 18.7-5.9 22.1-6.2 0.6-0.1 1.1-0.2 1.7-0.2 6.1-0.8 13-1 20.2-0.2 9.5 1.1 19.7 3.9 30.1 9.6 0 0-7.9-7.5-25-12.7l1.4-1.6s13.7-0.3 28.1 10.5c0 0 14.4 26.1 14.4 58.3 0 0-8.5 14.5-30.6 15.2z"/>
</svg>
